<svg xmlns="http://www.w3.org/2000/svg" version="1.1" xmlns:xlink="http://www.w3.org/1999/xlink" xmlns:svgjs="http://svgjs.dev/svgjs" width="2000" height="1247" viewBox="0 0 2000 1247"><g transform="matrix(1,0,0,1,-1.212071890782795,0.504858299595071)"><svg viewBox="0 0 396 247" data-background-color="#ffffff" preserveAspectRatio="xMidYMid meet" height="1247" width="2000" xmlns="http://www.w3.org/2000/svg" xmlns:xlink="http://www.w3.org/1999/xlink"><g id="tight-bounds" transform="matrix(1,0,0,1,0.239990234375,-0.09999999999999432)"><svg viewBox="0 0 395.52 247.2" height="247.2" width="395.52"><g><svg></svg></g><g><svg viewBox="0 0 395.52 247.2" height="247.2" width="395.52"><mask id="4be42625-4078-447b-9365-a9e2b4b5de3d"><rect width="640" height="400" fill="white"></rect><g transform="matrix(1,0,0,1,109.3901950932706,37.08)"><svg viewBox="0 0 176.73960981345877 173.04" height="173.04" width="176.73960981345877"><g><svg viewBox="0 0 176.73960981345877 173.04" height="173.04" width="176.73960981345877"><g><svg viewBox="0 0 176.73960981345877 173.04" height="173.04" width="176.73960981345877"><g><svg viewBox="0 0 176.73960981345877 173.04" height="173.04" width="176.73960981345877"><g id="SvgjsG3499"><svg viewBox="0 0 176.73960981345877 173.04" height="173.04" width="176.73960981345877" id="SvgjsSvg3498"><g><svg viewBox="0 0 176.73960981345877 173.04" height="173.04" width="176.73960981345877"><g transform="matrix(1,0,0,1,0,0)"><svg width="176.73960981345877" viewBox="-4.200000002980232 -33.540000915527344 38.329999923706055 37.540000915527344" height="173.04" data-palette-color="#ffdc00"><path d="M9.38 0L-0.05 0-0.2-2.44 2.34-3.22 12.26-27.25 16.36-29.54 27.59-3.22 30.13-2.44 29.98 0 16.89 0 16.75-2.44 19.87-3.22 17.24-9.52 16.7-11.18 11.82-22.71 13.23-22.31 9.18-11.33 8.74-9.86 6.4-3.22 9.52-2.44 9.38 0ZM7.57-8.3L7.57-8.3 7.57-11.62Q8.54-11.57 9.77-11.5 10.99-11.43 13.04-11.43L13.04-11.43Q14.99-11.43 16.28-11.5 17.58-11.57 18.51-11.62L18.51-11.62 18.51-8.35Q17.58-8.35 16.26-8.4 14.94-8.45 13.04-8.45L13.04-8.45Q11.04-8.45 9.77-8.4 8.5-8.35 7.57-8.3Z" opacity="1" transform="matrix(1,0,0,1,0,0)" fill="black" class="wordmark-text-0" id="SvgjsPath3497" stroke-width="7" stroke="black" stroke-linejoin="round"></path></svg></g></svg></g></svg></g></svg></g></svg></g></svg></g></svg></g></mask><g transform="matrix(1,0,0,1,109.3901950932706,37.08)"><svg viewBox="0 0 176.73960981345877 173.04" height="173.04" width="176.73960981345877"><g><svg viewBox="0 0 176.73960981345877 173.04" height="173.04" width="176.73960981345877"><g><svg viewBox="0 0 176.73960981345877 173.04" height="173.04" width="176.73960981345877"><g><svg viewBox="0 0 176.73960981345877 173.04" height="173.04" width="176.73960981345877"><g id="textblocktransform"><svg viewBox="0 0 176.73960981345877 173.04" height="173.04" width="176.73960981345877" id="textblock"><g><svg viewBox="0 0 176.73960981345877 173.04" height="173.04" width="176.73960981345877"><g transform="matrix(1,0,0,1,0,0)"><svg width="176.73960981345877" viewBox="-4.200000002980232 -33.540000915527344 38.329999923706055 37.540000915527344" height="173.04" data-palette-color="#ffdc00"><path d="M9.38 0L-0.05 0-0.2-2.44 2.34-3.22 12.26-27.25 16.36-29.54 27.59-3.22 30.13-2.44 29.98 0 16.89 0 16.75-2.44 19.87-3.22 17.24-9.52 16.7-11.18 11.82-22.71 13.23-22.31 9.18-11.33 8.74-9.86 6.4-3.22 9.52-2.44 9.38 0ZM7.57-8.3L7.57-8.3 7.57-11.62Q8.54-11.57 9.77-11.5 10.99-11.43 13.04-11.43L13.04-11.43Q14.99-11.43 16.28-11.5 17.58-11.57 18.51-11.62L18.51-11.62 18.51-8.35Q17.58-8.35 16.26-8.4 14.94-8.45 13.04-8.45L13.04-8.45Q11.04-8.45 9.77-8.4 8.5-8.35 7.57-8.3Z" opacity="1" transform="matrix(1,0,0,1,0,0)" fill="#ffdc00" class="wordmark-text-0" data-fill-palette-color="primary" id="text-0"></path></svg></g></svg></g></svg></g></svg></g></svg></g></svg></g></svg></g><g mask="url(#4be42625-4078-447b-9365-a9e2b4b5de3d)"><g transform="matrix(3.4794454124951617, 0, 0, 3.4794454124951617, 41.18515553318122, 1)"><svg xmlns="http://www.w3.org/2000/svg" xmlns:xlink="http://www.w3.org/1999/xlink" version="1.1" x="0" y="0" viewBox="5.0001115798950195 14.763997077941895 89.99988555908203 70.47100067138672" enable-background="new 0 0 100 100" xml:space="preserve" height="70.47100067138672" width="89.99988555908203" class="icon-none" data-fill-palette-color="accent" id="none"></svg></g></g></svg></g><defs></defs><mask id="0ec9ec57-18fa-4ec4-9d1e-c11635fe73d1"><g id="SvgjsG3509"><svg viewBox="0 0 395.52 247.2" height="247.2" width="395.52"><g><svg></svg></g><g><svg viewBox="0 0 395.52 247.2" height="247.2" width="395.52"><mask id="SvgjsMask3508"><g transform="matrix(1,0,0,1,109.3901950932706,37.08)"><svg viewBox="0 0 176.73960981345877 173.04" height="173.04" width="176.73960981345877"><g><svg viewBox="0 0 176.73960981345877 173.04" height="173.04" width="176.73960981345877"><g><svg viewBox="0 0 176.73960981345877 173.04" height="173.04" width="176.73960981345877"><g><svg viewBox="0 0 176.73960981345877 173.04" height="173.04" width="176.73960981345877"><g id="SvgjsG3507"><svg viewBox="0 0 176.73960981345877 173.04" height="173.04" width="176.73960981345877" id="SvgjsSvg3506"><g><svg viewBox="0 0 176.73960981345877 173.04" height="173.04" width="176.73960981345877"><g transform="matrix(1,0,0,1,0,0)"><svg width="176.73960981345877" viewBox="-4.200000002980232 -33.540000915527344 38.329999923706055 37.540000915527344" height="173.04" data-palette-color="#ffdc00"></svg></g></svg></g></svg></g></svg></g></svg></g></svg></g></svg></g></mask><g transform="matrix(1,0,0,1,109.3901950932706,37.08)"><svg viewBox="0 0 176.73960981345877 173.04" height="173.04" width="176.73960981345877"><g><svg viewBox="0 0 176.73960981345877 173.04" height="173.04" width="176.73960981345877"><g><svg viewBox="0 0 176.73960981345877 173.04" height="173.04" width="176.73960981345877"><g><svg viewBox="0 0 176.73960981345877 173.04" height="173.04" width="176.73960981345877"><g id="SvgjsG3504"><svg viewBox="0 0 176.73960981345877 173.04" height="173.04" width="176.73960981345877" id="SvgjsSvg3503"><g><svg viewBox="0 0 176.73960981345877 173.04" height="173.04" width="176.73960981345877"><g transform="matrix(1,0,0,1,0,0)"><svg width="176.73960981345877" viewBox="-4.200000002980232 -33.540000915527344 38.329999923706055 37.540000915527344" height="173.04" data-palette-color="#ffdc00"></svg></g></svg></g></svg></g></svg></g></svg></g></svg></g></svg></g><g mask="url(#4be42625-4078-447b-9365-a9e2b4b5de3d)"><g transform="matrix(3.4794454124951617, 0, 0, 3.4794454124951617, 41.18515553318122, 1)"><svg xmlns="http://www.w3.org/2000/svg" xmlns:xlink="http://www.w3.org/1999/xlink" version="1.1" x="0" y="0" viewBox="5.0001115798950195 14.763997077941895 89.99988555908203 70.47100067138672" enable-background="new 0 0 100 100" xml:space="preserve" height="70.47100067138672" width="89.99988555908203" class="icon-none" data-fill-palette-color="accent" id="SvgjsSvg3501"><path d="M64.226 70.58c4.544-4.09 7.713-9.571 8.765-15.736L95 53.631l-21.635-2.782c0.003-0.167 0.012-0.339 0.012-0.512 0-12.275-8.33-22.708-19.852-26.381l-2.108-9.192-5.548 7.818c-0.473-0.022-0.949-0.039-1.43-0.039-13.508 0-24.881 8.942-28.053 20.983L5.057 42.068c-0.128 0.423 0 16.526 0 16.526l11.565-0.634c0.387 1.308 0.868 2.565 1.444 3.784L7.455 76.695l12.631 0.963 4.268-7.351c5.208 4.835 12.289 7.812 20.085 7.812 4.457 0 8.677-0.975 12.453-2.71l10.692 9.826L64.226 70.58zM47.249 30.889l2.07 16.871-11.042-1.419L47.249 30.889zM29.779 45.251l-8.274-1.068c2.624-9.015 10.856-15.803 20.842-16.644L29.779 45.251zM32.019 57.108l18.321-1.007 1.833 14.974 0.716 0.656c-2.627 0.957-5.473 1.486-8.45 1.486-6.908 0-13.138-2.844-17.492-7.373L32.019 57.108zM60.771 55.522l6.955-0.384c-0.801 3.601-2.49 6.889-4.832 9.648L60.771 55.522zM59.284 49.04l-4.426-19.286c7.888 3.706 13.341 11.468 13.396 20.438L59.284 49.04z" fill="white"></path></svg></g></g></svg></g><defs><mask></mask></defs></svg></g></mask><linearGradient x1="0.054" x2="0.941" y1="0.5" y2="0.5" id="6a4970df-ed77-4ba0-8f76-5be2f941f67a"><stop stop-color="#0f3054" offset="0"></stop><stop stop-color="#3b8dcb" offset="0.498"></stop><stop stop-color="#0f3054" offset="1"></stop></linearGradient><rect width="395.52001953125" height="247.1999969482422" fill="url(#6a4970df-ed77-4ba0-8f76-5be2f941f67a)" mask="url(#0ec9ec57-18fa-4ec4-9d1e-c11635fe73d1)" data-fill-palette-color="accent"></rect></svg><rect width="395.52" height="247.2" fill="none" stroke="none" visibility="hidden"></rect></g></svg></g></svg>